<svg xmlns="http://www.w3.org/2000/svg" width="124" height="24" viewBox="0 0 124 24" fill="none">
<path d="M2 10.5C1.17157 10.5 0.5 11.1716 0.5 12C0.5 12.8284 1.17157 13.5 2 13.5V12V10.5ZM123.061 13.0607C123.646 12.4749 123.646 11.5251 123.061 10.9393L113.515 1.3934C112.929 0.807612 111.979 0.807612 111.393 1.3934C110.808 1.97918 110.808 2.92893 111.393 3.51472L119.879 12L111.393 20.4853C110.808 21.0711 110.808 22.0208 111.393 22.6066C111.979 23.1924 112.929 23.1924 113.515 22.6066L123.061 13.0607ZM2 12V13.5H122V12V10.5H2V12Z" fill="#1E1E1E"/>
</svg>