<svg xmlns="http://www.w3.org/2000/svg" width="124" height="24" viewBox="0 0 124 24" fill="none">
<path d="M122 13.51C122.828 13.51 123.5 12.8384 123.5 12.01C123.5 11.1816 122.828 10.51 122 10.51L122 12.01L122 13.51ZM0.939332 10.9493C0.353546 11.5351 0.353546 12.4849 0.939332 13.0707L10.4853 22.6166C11.0711 23.2024 12.0208 23.2024 12.6066 22.6166C13.1924 22.0308 13.1924 21.0811 12.6066 20.4953L4.12131 12.01L12.6066 3.52471C13.1924 2.93892 13.1924 1.98918 12.6066 1.40339C12.0208 0.817604 11.0711 0.817604 10.4853 1.40339L0.939332 10.9493ZM122 12.01L122 10.51L1.99999 10.51L1.99999 12.01L1.99999 13.51L122 13.51L122 12.01Z" fill="#1E1E1E"/>
</svg>